<svg width="14" height="14" viewBox="0 0 14 14" fill="none" xmlns="http://www.w3.org/2000/svg">
<g clip-path="url(#clip0_13_599)">
<path fill-rule="evenodd" clip-rule="evenodd" d="M6.62999 3.28999C5.9516 3.28802 5.28787 3.48725 4.72271 3.8625C4.15756 4.23775 3.71637 4.77216 3.45493 5.39815C3.1935 6.02414 3.12357 6.71359 3.25397 7.37933C3.38438 8.04507 3.70927 8.65718 4.18757 9.13827C4.66586 9.61936 5.27607 9.94782 5.94104 10.0821C6.606 10.2164 7.29585 10.1505 7.92336 9.8927C8.55086 9.63492 9.08783 9.19686 9.46637 8.6339C9.84491 8.07094 10.048 7.40838 10.05 6.72999C10.0513 6.27956 9.96389 5.83328 9.79273 5.41663C9.62157 4.99997 9.37002 4.62112 9.05244 4.30168C8.73486 3.98225 8.35748 3.72849 7.94183 3.55491C7.52619 3.38132 7.08042 3.2913 6.62999 3.28999ZM6.62999 8.93999C6.19092 8.93999 5.7617 8.80979 5.39662 8.56586C5.03155 8.32192 4.747 7.9752 4.57898 7.56955C4.41095 7.1639 4.36699 6.71753 4.45265 6.28689C4.53831 5.85625 4.74974 5.46069 5.06021 5.15022C5.37069 4.83974 5.76625 4.62831 6.19689 4.54265C6.62753 4.45699 7.07389 4.50095 7.47955 4.66898C7.8852 4.83701 8.23192 5.12155 8.47585 5.48663C8.71979 5.8517 8.84999 6.28092 8.84999 6.71999C8.85131 7.0119 8.7948 7.30117 8.6837 7.57111C8.5726 7.84105 8.40913 8.08631 8.20272 8.29272C7.99631 8.49913 7.75105 8.66261 7.48111 8.7737C7.21117 8.8848 6.92189 8.94132 6.62999 8.93999Z" fill="#FDFEFE"/>
<path d="M10.96 3.13002C10.96 3.28824 10.9131 3.44291 10.8252 3.57447C10.7373 3.70603 10.6123 3.80857 10.4661 3.86912C10.32 3.92967 10.1591 3.94551 10.0039 3.91465C9.84873 3.88378 9.70618 3.80758 9.5943 3.6957C9.48242 3.58382 9.40623 3.44127 9.37536 3.28609C9.34449 3.1309 9.36033 2.97005 9.42088 2.82387C9.48143 2.67769 9.58397 2.55275 9.71553 2.46484C9.84709 2.37694 10.0018 2.33002 10.16 2.33002C10.3722 2.33002 10.5756 2.4143 10.7257 2.56433C10.8757 2.71436 10.96 2.91784 10.96 3.13002Z" fill="#FDFEFE"/>
<path fill-rule="evenodd" clip-rule="evenodd" d="M6.63002 0.0501338H3.88002C3.32658 0.0630732 2.77914 0.167832 2.26002 0.360134C1.81598 0.529138 1.41353 0.791754 1.08002 1.13013C0.741642 1.46365 0.479026 1.8661 0.310022 2.31013C0.108962 2.82839 -0.0091535 3.3751 -0.039978 3.93013L-0.039978 9.43013C-0.0103293 9.98533 0.107826 10.5322 0.310022 11.0501C0.478875 11.4972 0.741417 11.9029 1.08002 12.2401C1.41658 12.5723 1.81838 12.8311 2.26002 13.0001C2.77781 13.1971 3.32608 13.3021 3.88002 13.3101H9.38002C9.92107 13.2943 10.4554 13.186 10.96 12.9901C11.4055 12.8288 11.8089 12.569 12.14 12.2301C12.4955 11.9007 12.7753 11.4981 12.96 11.0501C13.1512 10.5342 13.256 9.9902 13.27 9.44013V3.93013C13.2571 3.3767 13.1523 2.82925 12.96 2.31013C12.7863 1.8547 12.5184 1.4411 12.1737 1.09643C11.8291 0.75177 11.4155 0.483818 10.96 0.310134C10.4348 0.133763 9.88401 0.0458998 9.33002 0.0501338C8.43059 0.0953633 7.52945 0.0953633 6.63002 0.0501338ZM6.63002 1.25013H9.32002C9.74332 1.25682 10.1625 1.33457 10.56 1.48013C10.8488 1.59113 11.1111 1.76153 11.3299 1.9803C11.5486 2.19907 11.719 2.46134 11.83 2.75013C11.9765 3.14394 12.0543 3.55999 12.06 3.98013V9.37013C12.0533 9.79343 11.9756 10.2126 11.83 10.6101C11.719 10.8989 11.5486 11.1612 11.3299 11.38C11.1111 11.5987 10.8488 11.7691 10.56 11.8801C10.1619 12.0225 9.74277 12.0968 9.32002 12.1001H3.96002C3.53728 12.0968 3.1181 12.0225 2.72002 11.8801C2.43123 11.7691 2.16896 11.5987 1.95019 11.38C1.73142 11.1612 1.56102 10.8989 1.45002 10.6101C1.30446 10.2126 1.22671 9.79343 1.22002 9.37013V3.98013C1.2193 3.56115 1.29032 3.14514 1.43002 2.75013C1.54102 2.46134 1.71142 2.19907 1.93019 1.9803C2.14896 1.76153 2.41123 1.59113 2.70002 1.48013C3.10388 1.33235 3.53 1.25457 3.96002 1.25013C4.64002 1.26013 4.85002 1.25013 6.63002 1.25013Z" fill="#FDFEFE"/>
</g>
<defs>
<clipPath id="clip0_13_599">
<rect width="13.26" height="13.3" fill="white"/>
</clipPath>
</defs>
</svg>
