<svg width="35" height="55" viewBox="0 0 35 55" fill="none" xmlns="http://www.w3.org/2000/svg">
<path d="M34.5345 26.9679V13.5349C34.5345 13.3284 34.272 13.2339 34.1425 13.3984L19.4705 31.7384C19.4445 31.7707 19.4282 31.8097 19.4235 31.8508C19.4187 31.892 19.4257 31.9337 19.4437 31.971C19.4616 32.0083 19.4898 32.0399 19.5249 32.0619C19.56 32.0839 19.6006 32.0955 19.642 32.0954H30.2435C30.5305 32.0954 30.8 31.9659 30.9785 31.7419L34.328 27.5559C34.461 27.3879 34.5345 27.1814 34.5345 26.9679ZM0.2065 27.5559L11.228 41.3319C11.4065 41.5559 11.676 41.6854 11.963 41.6854H22.5645C22.75 41.6854 22.8515 41.4719 22.736 41.3284L0.392 13.3984C0.2625 13.2374 0 13.3284 0 13.5349V26.9679C0 27.1814 0.0735 27.3879 0.2065 27.5559Z" fill="white"/>
</svg>
