<svg width="14" height="14" viewBox="0 0 14 14" fill="none" xmlns="http://www.w3.org/2000/svg">
<path fill-rule="evenodd" clip-rule="evenodd" d="M7 14C10.8657 14 14 10.8657 14 7C14 3.13425 10.8657 0 7 0C3.13425 0 0 3.13425 0 7C0 10.8657 3.13425 14 7 14ZM10.2976 6.23117C10.3647 6.23117 10.4317 6.22708 10.4988 6.22067H10.5V4.8615C9.98989 4.82467 9.50895 4.60971 9.14129 4.2542C8.77362 3.89869 8.54261 3.42525 8.48867 2.91667H7.31675L7.30508 8.61817C7.30508 9.31817 6.68617 9.86883 5.98558 9.86883C5.285 9.86883 4.71683 9.30183 4.71683 8.603C4.71683 7.903 5.285 7.336 5.98558 7.336C6.02467 7.336 6.062 7.34125 6.09992 7.3465L6.139 7.35175V6.12908L6.10342 6.12617C6.06433 6.12383 6.02525 6.12092 5.98558 6.12092C5.65943 6.12061 5.33641 6.18456 5.03497 6.3091C4.73353 6.43365 4.45959 6.61636 4.22877 6.8468C3.99796 7.07724 3.8148 7.35088 3.68975 7.65212C3.56471 7.95335 3.50023 8.27626 3.5 8.60242C3.50062 9.26091 3.76276 9.8922 4.22877 10.3574C4.69478 10.8227 5.3265 11.0838 5.985 11.0833C6.31115 11.0836 6.63417 11.0197 6.93561 10.8951C7.23705 10.7706 7.511 10.5879 7.74181 10.3574C7.97263 10.127 8.15579 9.85336 8.28083 9.55213C8.40588 9.2509 8.47035 8.92799 8.47058 8.60183V5.24533C8.66945 5.5483 8.94056 5.79704 9.2595 5.96914C9.57843 6.14123 9.93518 6.23128 10.2976 6.23117Z" fill="white"/>
</svg>
