<svg width="219" height="37" viewBox="0 0 219 37" fill="none" xmlns="http://www.w3.org/2000/svg">
<g clip-path="url(#clip0_11_952)">
<path d="M14.2797 6.62025L0 13.2331L3.55799 26.774L6.26588 26.4415L5.52132 17.9275L6.41046 17.5313L7.94584 26.2347L12.5737 25.6666L11.7511 16.2692L12.6315 15.8774L14.3202 25.4526L19.0015 24.8772L18.1008 14.5762L18.9914 14.1801L20.8376 24.6516L25.4654 24.0835V9.42211L14.2797 6.62025ZM14.6151 27.1571L14.8507 28.4901L25.4654 30.2597V25.8242L14.6209 27.1571H14.6151ZM35.5047 24.3784V26.2044H37.7558C37.756 26.5747 37.6604 26.9388 37.4782 27.2612C37.2877 27.5825 37.0058 27.8397 36.6686 28C36.2653 28.1843 35.825 28.2733 35.3818 28.2602C34.8701 28.2744 34.3661 28.1333 33.9361 27.8554C33.5161 27.5639 33.1921 27.1543 33.005 26.6786C32.7718 26.0837 32.6602 25.448 32.6768 24.8092C32.6598 24.1754 32.774 23.5448 33.0123 22.9572C33.2071 22.4889 33.5335 22.0872 33.952 21.8006C34.3739 21.5267 34.8688 21.3866 35.3717 21.3987C35.6336 21.3964 35.8944 21.431 36.1466 21.5014C36.371 21.5656 36.5828 21.6678 36.7727 21.8035C36.953 21.9335 37.1087 22.0945 37.2324 22.2792C37.3618 22.4767 37.4593 22.6933 37.5216 22.9211H40.0184C39.953 22.3971 39.7829 21.8917 39.5181 21.4349C39.2547 20.9841 38.909 20.5869 38.4989 20.2638C38.0692 19.9279 37.5844 19.6691 37.0661 19.499C36.5033 19.3158 35.9145 19.225 35.3226 19.2301C34.63 19.2243 33.9428 19.3519 33.2985 19.606C32.6794 19.8525 32.1197 20.2275 31.6561 20.7062C31.1711 21.2121 30.7965 21.8132 30.5559 22.4715C30.2812 23.2332 30.1475 24.0386 30.1612 24.8483C30.1612 25.9991 30.38 26.9914 30.8176 27.8251C31.2314 28.6281 31.8685 29.2944 32.6523 29.7436C33.4464 30.1673 34.3288 30.399 35.2286 30.42C36.1285 30.4411 37.0207 30.251 37.8338 29.865C38.5374 29.5081 39.1232 28.9559 39.521 28.2747C39.9307 27.5817 40.135 26.7528 40.134 25.788V24.377L35.5047 24.3784ZM66.5927 30.2785V19.3718H74.0629V21.39H69.0577V23.8131H73.1044V25.8314H69.0577V28.2602H74.0745V30.2785H66.5927ZM81.3148 22.5727C81.3038 22.3852 81.2524 22.2023 81.164 22.0366C81.0757 21.8709 80.9525 21.7263 80.803 21.6127C80.5008 21.3828 80.0801 21.2686 79.5466 21.2686C79.2385 21.2583 78.9312 21.3074 78.6416 21.4132C78.4231 21.4929 78.2313 21.6321 78.0879 21.8151C77.9636 21.9823 77.8962 22.185 77.8956 22.3934C77.8888 22.5595 77.9284 22.7241 78.0098 22.869C78.0956 23.0131 78.2145 23.1345 78.3568 23.2232C78.5236 23.3314 78.7033 23.4183 78.8917 23.482C79.1113 23.5585 79.3353 23.6218 79.5625 23.6714L80.5211 23.8941C80.9909 23.994 81.4488 24.1433 81.8873 24.3394C82.2676 24.5089 82.6189 24.7372 82.9282 25.016C83.2115 25.2739 83.4371 25.5887 83.5904 25.9398C83.7508 26.3187 83.8301 26.727 83.8232 27.1383C83.8394 27.761 83.6604 28.3732 83.3114 28.8891C82.9424 29.4015 82.4326 29.7958 81.8439 30.0241C81.11 30.3075 80.3273 30.4431 79.5408 30.4231C78.7426 30.4401 77.9487 30.3022 77.2031 30.0168C76.5751 29.7729 76.0351 29.3457 75.6532 28.7908C75.2841 28.2453 75.0913 27.5648 75.0749 26.7494H77.4503C77.4534 27.0643 77.5527 27.3707 77.7348 27.6276C77.917 27.8845 78.1734 28.0795 78.4695 28.1865C78.8036 28.3135 79.1589 28.3753 79.5163 28.3687C79.8442 28.3758 80.1706 28.3224 80.4791 28.2111C80.7228 28.1251 80.939 27.9753 81.1051 27.7774C81.2516 27.5932 81.3316 27.365 81.3321 27.1297C81.3344 26.9187 81.2616 26.7137 81.1268 26.5514C80.9617 26.3712 80.7567 26.2321 80.5283 26.1451C80.2057 26.0136 79.8725 25.9101 79.5322 25.8357L78.3654 25.5538C77.4353 25.3321 76.7014 24.9822 76.1636 24.5042C75.6258 24.0261 75.3588 23.3784 75.3626 22.5611C75.3456 21.9339 75.5345 21.3185 75.9004 20.8088C76.2835 20.2906 76.7995 19.8855 77.3939 19.6363C78.0793 19.3457 78.8182 19.2023 79.5625 19.2156C80.3034 19.199 81.0392 19.3425 81.7196 19.6363C82.2973 19.8877 82.7935 20.2953 83.1523 20.8132C83.4972 21.332 83.6785 21.9424 83.6728 22.5654L81.3148 22.5727ZM64.8347 30.2785H62.3957V21.9871L62.1456 21.9842L59.682 30.2785H57.2445L54.8474 21.9842L54.5366 21.9871V30.2785H52.0976V19.3718H56.2426L58.336 26.6815H58.589L60.6825 19.3718H64.8347V30.2785ZM48.2577 30.2785H50.8991L47.237 19.3732H43.8901L40.2222 30.2785H42.8679L43.5807 27.8872H47.5449L48.2577 30.2785ZM44.1474 25.9846L45.3358 21.9871H45.784L46.9782 25.9846H44.1474ZM84.4231 20.5255C84.3099 20.5251 84.1992 20.4915 84.1049 20.4288C84.0106 20.366 83.9367 20.277 83.8926 20.1727C83.8627 20.1018 83.8474 20.0256 83.8474 19.9486C83.8474 19.8717 83.8627 19.7955 83.8926 19.7245C83.9213 19.656 83.9631 19.5937 84.0154 19.5409C84.0686 19.4887 84.1308 19.4465 84.1991 19.4166C84.3428 19.3587 84.5034 19.3587 84.6472 19.4166C84.7157 19.4462 84.7779 19.4884 84.8308 19.5409C84.8835 19.5937 84.9257 19.656 84.9552 19.7245C84.985 19.7955 85.0004 19.8717 85.0004 19.9486C85.0004 20.0256 84.985 20.1018 84.9552 20.1727C84.9257 20.2412 84.8835 20.3035 84.8308 20.3563C84.7782 20.4092 84.7159 20.4514 84.6472 20.4807C84.5763 20.5104 84.5001 20.5256 84.4231 20.5255ZM84.4231 20.3679C84.4978 20.3688 84.5713 20.3493 84.6357 20.3115C84.6975 20.2767 84.7497 20.227 84.7875 20.1669C84.8244 20.1027 84.8438 20.0299 84.8438 19.9558C84.8438 19.8818 84.8244 19.809 84.7875 19.7448C84.7491 19.6847 84.6964 19.6351 84.6342 19.6002C84.57 19.5633 84.4972 19.5439 84.4231 19.5439C84.3491 19.5439 84.2763 19.5633 84.2121 19.6002C84.153 19.6362 84.1035 19.6857 84.0675 19.7448C84.0296 19.8086 84.0096 19.8816 84.0096 19.9558C84.0096 20.0301 84.0296 20.1031 84.0675 20.1669C84.1035 20.226 84.153 20.2755 84.2121 20.3115C84.276 20.3491 84.349 20.3686 84.4231 20.3679ZM84.2121 20.2016V19.671H84.4694C84.5039 19.6703 84.5381 19.6778 84.5692 19.6927C84.5971 19.7061 84.6207 19.7272 84.6371 19.7534C84.6541 19.7823 84.6626 19.8154 84.6617 19.8489C84.6628 19.8826 84.6537 19.9158 84.6357 19.9443C84.6195 19.971 84.5952 19.9918 84.5663 20.0036C84.5346 20.018 84.4999 20.025 84.4651 20.0238H84.2916V19.9197H84.4362C84.4551 19.9207 84.4737 19.9145 84.4882 19.9024C84.495 19.8953 84.5004 19.8869 84.5038 19.8777C84.5073 19.8685 84.5089 19.8587 84.5084 19.8489C84.5092 19.839 84.5077 19.8291 84.5042 19.8199C84.5007 19.8106 84.4953 19.8023 84.4882 19.7954C84.4737 19.7832 84.4551 19.777 84.4362 19.778H84.3566V20.2016H84.2121ZM84.5576 19.9587L84.6761 20.2016H84.5157L84.4072 19.9587H84.5576ZM40.8294 6.72145H43.2944V17.6282H40.8294V6.72145ZM55.0007 12.1748C55.0007 13.3719 54.7737 14.3839 54.3197 15.2109C53.898 16.0093 53.2563 16.6701 52.4706 17.1149C51.6628 17.5459 50.7614 17.7713 49.8459 17.7713C48.9303 17.7713 48.0289 17.5459 47.2211 17.1149C46.4352 16.6684 45.7936 16.0062 45.372 15.2066C44.918 14.3719 44.691 13.3599 44.691 12.1705C44.691 10.9811 44.918 9.96668 45.372 9.12718C45.7928 8.33119 46.4324 7.67206 47.2153 7.22746C48.0234 6.7975 48.9247 6.57263 49.8401 6.57263C50.7554 6.57263 51.6568 6.7975 52.4648 7.22746C53.2505 7.67236 53.8922 8.33314 54.3139 9.13152C54.7679 9.96427 54.9949 10.9787 54.9949 12.1748M52.4865 12.1748C52.5052 11.5331 52.3956 10.8941 52.1641 10.2953C51.9809 9.82735 51.6623 9.42464 51.249 9.13875C50.8261 8.87878 50.3394 8.74115 49.843 8.74115C49.3466 8.74115 48.8599 8.87878 48.437 9.13875C48.0232 9.42486 47.7037 9.82741 47.5189 10.2953C47.0841 11.5106 47.0841 12.839 47.5189 14.0543C47.703 14.5226 48.0227 14.9253 48.437 15.2109C48.8599 15.4709 49.3466 15.6085 49.843 15.6085C50.3394 15.6085 50.8261 15.4709 51.249 15.2109C51.6628 14.9255 51.9815 14.5226 52.1641 14.0543C52.3954 13.4555 52.5051 12.8165 52.4865 12.1748ZM35.6493 13.8259L36.9158 17.6282H39.6208L38.2126 13.5324H36.2999L36.1857 13.1796C36.55 13.1088 37.1731 12.9989 37.7254 12.623C38.1122 12.3598 38.4294 12.0067 38.6498 11.594C38.8701 11.1813 38.987 10.7213 38.9904 10.2534C39.007 9.60719 38.8438 8.96905 38.5191 8.41009C38.2018 7.86883 37.7308 7.43406 37.1659 7.16096C36.5035 6.85424 35.7789 6.70575 35.0493 6.72723H30.6499V17.6282H33.1164V13.8259H35.6493ZM35.603 11.5691C35.2673 11.6925 34.911 11.7504 34.5534 11.7397H33.1164V8.72381H34.5491C34.9069 8.71352 35.2632 8.77445 35.5973 8.90309C35.8614 9.00815 36.0846 9.19579 36.2334 9.43802C36.3852 9.68221 36.4607 9.9661 36.4503 10.2534C36.462 10.5364 36.3874 10.8163 36.2363 11.0558C36.0867 11.2913 35.8644 11.4715 35.603 11.5691ZM55.2334 6.72145V8.7455H59.4695L59.5852 9.09971C59.2266 9.16911 58.6208 9.27609 58.0772 9.63464V17.6311H60.5162V8.73972H63.3528V6.71567L55.2334 6.72145Z" fill="white"/>
</g>
<path d="M119.601 17.83L123.309 14.1982L124 14.8752L120.292 18.507L123.986 22.1248L123.295 22.8018L119.601 19.184L115.705 23L115.014 22.323L118.91 18.507L115 14.677L115.691 14L119.601 17.83Z" fill="white" fill-opacity="0.25"/>
<path fill-rule="evenodd" clip-rule="evenodd" d="M215.755 0C214.911 0 212.27 0.777645 208.938 2.01355C207.748 2.44403 205.439 3.26333 203.807 3.83268C198.788 5.55461 197.294 6.15173 195.261 7.23488C193.339 8.26248 193.477 8.17916 193.699 8.24859C193.92 8.31802 194.57 8.08195 197.156 6.95714C198.843 6.23505 201.443 5.29076 204.665 4.19373C205.978 3.76325 210.956 2.0552 211.606 1.81913C213.446 1.16647 215.423 0.666553 215.783 0.777645C215.99 0.847078 215.99 0.874851 215.852 1.11092C215.271 2.12464 213.791 3.59661 209.256 7.60981C206.739 9.83165 204.54 11.8313 202.494 13.7615L201.622 14.5808L200.668 14.8169C197.903 15.4974 194.943 16.3861 191.196 17.622C189.288 18.2608 188.472 18.5802 188.416 18.7468C188.361 18.9273 188.555 19.1634 188.79 19.1634C189.191 19.1912 191.528 18.5663 195.69 17.3165C196.879 16.9554 199.216 16.3167 199.52 16.2611C199.728 16.2333 199.742 16.2472 199.645 16.3583C199.576 16.4416 199.23 16.7749 198.857 17.1082C198.483 17.4415 197.972 17.9275 197.695 18.1913C197.432 18.4552 197.059 18.8162 196.865 18.9968C195.192 20.5659 192.772 22.9961 191.652 24.2181C190.421 25.5651 190.394 25.6067 189.689 26.4538C189.37 26.8288 189.052 27.2176 188.969 27.287C188.43 27.8702 186.923 30.0921 186.121 31.4946C185.056 33.3832 184.793 34.7718 185.402 35.4523C186.259 36.4243 188.679 35.8689 194.252 33.4248C194.847 33.1749 195.662 32.8138 196.05 32.6472C197.114 32.1889 198.234 31.6751 200.654 30.5365C204.609 28.6757 211.095 25.3707 214.054 23.7182C215.202 23.0655 216.184 22.5378 216.211 22.5239C216.681 22.3573 219.171 20.4687 218.991 20.3993C218.977 20.3993 218.368 20.6909 217.636 21.0658C216.903 21.4269 215.285 22.2184 214.026 22.8433C210.791 24.4125 209.532 25.0235 207.956 25.8011C206.849 26.3427 204.927 27.287 202.355 28.509C202.231 28.5785 201.816 28.759 201.443 28.9395C201.069 29.1061 200.35 29.4533 199.852 29.6894C195.773 31.6474 190.85 33.7442 188.61 34.4941C187.877 34.7441 186.771 34.9663 186.411 34.9385C185.789 34.8829 185.83 34.0081 186.522 32.6333C187.02 31.6751 187.877 30.2171 188.181 29.8421C188.306 29.6894 188.403 29.5505 188.403 29.5227C188.403 29.4811 188.983 28.7034 189.384 28.1896C191.058 26.1067 191.929 25.1346 193.657 23.3432C194.777 22.1768 195.967 20.9825 196.285 20.6909C198.096 18.969 200.101 17.0665 200.35 16.8027C201.111 16.0112 201.47 15.789 202.383 15.5668C204.222 15.1224 209.836 14.1781 212.27 13.9004C213.086 13.8032 213.21 13.7615 213.086 13.6366C212.809 13.3449 211.15 13.2477 208.951 13.4005C208.481 13.4283 207.029 13.6227 205.716 13.831C204.402 14.0393 203.309 14.2059 203.309 14.2059C203.185 14.1642 203.309 14.0532 205.978 11.6091C206.808 10.8593 207.582 10.1372 207.707 10.0261C208.371 9.40117 209.657 8.24859 210.791 7.23488C213.1 5.19356 213.501 4.81862 214.275 4.08264C216.225 2.20796 216.889 1.20813 216.612 0.583234C216.46 0.249957 216.114 0.027773 215.713 0.027773L215.755 0Z" fill="white"/>
<path fill-rule="evenodd" clip-rule="evenodd" d="M177.437 9.09567C174.768 9.72056 168.78 12.5673 163.94 15.5112C162.834 16.1778 161.949 16.7194 161.838 16.7888C161.423 17.011 159.225 18.4691 158.326 19.1217C156.75 20.2465 155.851 20.9825 154.592 22.1907C154.191 22.5517 153.942 22.9405 154.011 23.0238C154.122 23.1488 154.468 23.01 154.786 22.7183C155.408 22.1351 156.971 20.9131 158.119 20.1216C159.114 19.4272 162.308 17.3443 162.516 17.2609C162.557 17.2609 162.903 17.0249 163.304 16.7888C164.576 15.9973 165.143 15.7057 165.088 15.8862C165.06 15.9695 164.95 16.1361 164.839 16.2472C164.521 16.5666 162.958 18.719 162.322 19.7327C161.188 21.5241 159.806 24.1348 158.851 26.3427C158.132 27.9813 156.929 32.0223 156.528 34.1053C156.348 35.0635 156.21 36.2299 156.266 36.3966C156.293 36.5077 156.39 36.5632 156.501 36.5493C156.722 36.5493 156.805 36.2577 157.261 34.2025C157.704 32.2167 159.308 27.3148 160.054 25.7317C161.576 22.4962 162.64 20.6631 165.019 17.2332C166.595 14.9558 166.899 14.6642 168.255 13.9004C171.117 12.3173 175.376 10.1788 177.326 9.33174C178.363 8.88737 178.377 8.87348 177.45 9.09567H177.437Z" fill="white"/>
<path fill-rule="evenodd" clip-rule="evenodd" d="M176.261 18.7885C174.45 19.6355 170.592 22.5934 168.324 24.8569C165.392 27.8008 163.263 30.8003 162.571 32.9666C162.143 34.2997 162.129 35.1329 162.53 35.9105C163.318 37.4519 165.143 37.3686 168.517 35.5911C170.661 34.4802 172.376 33.1471 174.284 31.1058C175.293 30.0365 176.635 28.3702 177.229 27.4814C177.616 26.8843 177.796 26.4399 177.616 26.551C177.561 26.5788 176.413 27.7314 175.072 29.12C173.039 31.203 170.716 33.3693 170.384 33.4943C170.343 33.4943 170.052 33.7026 169.748 33.9248C168.863 34.5635 166.595 35.7022 165.738 35.9244C164.673 36.216 164.189 36.2577 163.691 36.1049C163.318 35.98 163.235 35.9244 163.069 35.5773C162.806 35.0218 162.862 34.2719 163.221 33.1332C163.498 32.2723 164.148 30.9392 164.549 30.4392C164.645 30.3143 164.881 30.2032 165.116 30.1615C166.056 30.0088 167.176 29.1756 171.615 25.3429C173.523 23.7043 175.902 21.2741 176.731 20.1077C177.215 19.4411 177.312 19.2467 177.298 18.969C177.298 18.5524 176.87 18.483 176.22 18.7746L176.261 18.7885ZM175.999 19.8438C175.874 20.2465 173.399 22.8294 171.532 24.4819C168.67 27.0232 168.144 27.4675 166.899 28.4951C164.922 30.0921 164.77 30.0643 166.097 28.3424C168.324 25.4401 171.587 22.51 175.224 20.1632C175.86 19.7466 176.054 19.6633 176.012 19.8438H175.999Z" fill="white"/>
<path fill-rule="evenodd" clip-rule="evenodd" d="M184.932 22.2045C184.185 22.3156 182.857 22.9822 181.986 23.6626C179.414 25.7039 177.174 29.0367 176.151 32.3278C175.694 33.7998 175.611 34.2997 175.846 34.3691C176.081 34.4386 176.22 34.2303 176.787 32.7722C177.45 31.078 178.045 29.8977 179.013 28.4396C180.672 25.9261 181.945 24.6486 184.005 23.4821C184.337 23.2877 185.015 23.1349 185.222 23.2044C185.374 23.2599 185.443 23.3571 185.457 23.6071C185.526 24.3431 185.222 25.4956 183.659 30.4948C182.788 33.2443 182.083 35.5911 182.083 35.7022C182.083 35.9383 182.415 36.0633 182.678 35.9105C183.148 35.6328 183.286 35.2579 184.779 30.5503C186.314 25.7595 186.55 24.7735 186.508 23.7459C186.467 23.1072 186.273 22.6489 185.9 22.3712C185.54 22.0935 185.512 22.0934 184.904 22.1907L184.932 22.2045Z" fill="white"/>
<defs>
<clipPath id="clip0_11_952">
<rect width="85" height="27" fill="white" transform="translate(0 5)"/>
</clipPath>
</defs>
</svg>
