<svg width="15" height="11" viewBox="0 0 15 11" fill="none" xmlns="http://www.w3.org/2000/svg">
<path fill-rule="evenodd" clip-rule="evenodd" d="M7.49884 0.00345346C9.46084 -0.0190645 11.422 0.098056 13.369 0.353063C13.6863 0.442283 13.9755 0.617402 14.2078 0.860875C14.4401 1.1043 14.6071 1.40731 14.6922 1.73978C14.9118 2.98437 15.0149 4.24861 14.9988 5.5142C15.0058 6.77943 14.9028 8.04276 14.6922 9.28861C14.6054 9.62026 14.4379 9.92238 14.2059 10.1656C13.9738 10.4088 13.6855 10.5854 13.369 10.6763C11.4208 10.9142 9.46005 11.0208 7.49884 10.9966C5.5371 11.0218 3.57589 10.9082 1.62873 10.6568C1.31208 10.5692 1.02221 10.3957 0.789858 10.1538C0.557717 9.91206 0.390132 9.60991 0.304507 9.27884C-0.101474 6.7807 -0.101531 4.22815 0.304507 1.73002C0.390749 1.39711 0.55889 1.09391 0.790835 0.849157C1.02286 0.60433 1.31156 0.426154 1.62873 0.333532C3.57635 0.0886823 5.5374 -0.021488 7.49884 0.00345346ZM6.00373 7.88236L9.91193 5.52396L6.00373 3.16459V7.88236Z" fill="white"/>
</svg>
